<?xml version="1.0" standalone="no"?>
<!DOCTYPE svg PUBLIC "-//W3C//DTD SVG 20010904//EN"
 "http://www.w3.org/TR/2001/REC-SVG-20010904/DTD/svg10.dtd">
<svg version="1.0" xmlns="http://www.w3.org/2000/svg"
 width="169.000000pt" height="40.000000pt" viewBox="0 0 169.000000 40.000000"
 preserveAspectRatio="xMidYMid meet">
<metadata>
Created by potrace 1.10, written by Peter Selinger 2001-2011
</metadata>
<g transform="translate(0.000000,40.000000) scale(0.100000,-0.100000)"
fill="#000000" stroke="none">
<path d="M660 245 l0 -135 35 0 c35 0 35 0 35 45 0 38 3 45 19 45 11 0 26 2
34 5 11 5 13 -4 9 -47 -3 -44 0 -59 20 -88 34 -51 62 -62 136 -56 35 3 67 8
72 11 6 4 10 37 10 76 l0 69 -60 0 c-57 0 -60 -1 -60 -25 0 -20 5 -25 25 -25
20 0 25 -5 25 -25 0 -21 -5 -25 -28 -25 -41 0 -62 28 -62 83 0 36 5 49 22 61
26 18 61 21 88 6 15 -8 20 -4 30 21 7 16 10 33 6 36 -9 10 -128 10 -147 0 -12
-6 -15 -1 -15 29 0 56 -29 74 -120 74 l-74 0 0 -135z m59 94 c-14 -27 -11 -70
6 -89 14 -15 14 -18 0 -30 -8 -7 -15 -28 -15 -47 0 -20 -4 -32 -10 -28 -6 3
-10 52 -10 110 0 96 1 104 19 102 15 -1 17 -5 10 -18z m95 -5 c9 -8 16 -25 16
-38 0 -32 18 -46 54 -40 l31 5 -27 -17 c-52 -34 -62 -110 -23 -168 l25 -37
-29 17 c-33 19 -41 39 -41 101 0 55 -8 73 -32 73 -19 0 -19 1 1 26 25 32 26
51 4 76 -20 22 -1 24 21 2z m-46 -13 c22 -13 11 -56 -15 -59 -20 -3 -23 1 -23
32 0 36 11 44 38 27z m231 -226 c2 -40 -1 -45 -23 -51 -14 -3 -31 -4 -38 -1
-7 3 -3 6 9 6 37 2 49 51 21 88 -6 8 -4 10 10 7 14 -4 19 -16 21 -49z"/>
<path d="M17 303 c-4 -3 -7 -53 -7 -110 l0 -103 283 2 282 3 -272 2 -273 3 0
95 0 95 270 0 c173 0 270 4 270 10 0 11 -542 15 -553 3z"/>
<path d="M1110 300 c0 -6 98 -10 275 -10 l275 0 0 -95 0 -95 -277 -3 -278 -2
283 -3 282 -2 0 110 0 110 -280 0 c-180 0 -280 -4 -280 -10z"/>
<path d="M170 215 c0 -16 6 -25 15 -25 8 0 15 7 15 16 0 9 6 14 13 12 6 -3 12
-13 12 -24 0 -13 -8 -20 -27 -22 -37 -4 -36 -22 0 -22 33 0 52 16 52 45 0 29
-19 45 -52 45 -23 0 -28 -4 -28 -25z"/>
<path d="M265 195 c0 -29 4 -45 13 -45 8 0 12 16 12 45 0 29 -4 45 -12 45 -9
0 -13 -16 -13 -45z"/>
<path d="M300 231 c0 -6 9 -11 20 -11 16 0 20 -7 20 -35 0 -19 5 -35 11 -35 6
0 9 17 7 43 -3 38 -6 42 -30 45 -16 2 -28 -1 -28 -7z"/>
<path d="M380 231 c0 -5 7 -11 15 -15 8 -3 15 -12 15 -21 0 -9 -7 -18 -15 -21
-23 -9 -18 -21 10 -21 26 0 31 17 19 65 -6 21 -44 33 -44 13z"/>
<path d="M1150 218 c0 -45 12 -68 34 -68 31 0 46 19 46 57 0 26 -4 33 -20 33
-11 0 -20 -4 -20 -10 0 -5 5 -10 11 -10 14 0 7 -42 -8 -47 -7 -3 -15 10 -19
31 -7 40 -24 49 -24 14z"/>
<path d="M1240 231 c0 -6 9 -11 20 -11 16 0 20 -7 20 -35 0 -19 5 -35 11 -35
6 0 9 17 7 43 -3 38 -6 42 -30 45 -16 2 -28 -1 -28 -7z"/>
<path d="M1320 195 c0 -33 4 -45 15 -45 11 0 15 12 15 45 0 33 -4 45 -15 45
-11 0 -15 -12 -15 -45z"/>
<path d="M1370 215 c0 -14 5 -25 10 -25 6 0 10 7 10 15 0 8 7 15 15 15 9 0 15
-9 15 -25 0 -20 -5 -25 -25 -25 -14 0 -25 -5 -25 -11 0 -6 14 -9 33 -7 27 2
33 8 35 31 4 35 -13 57 -44 57 -19 0 -24 -5 -24 -25z"/>
<path d="M1458 195 c3 -36 8 -45 22 -45 39 0 50 11 50 51 0 38 -1 39 -38 39
l-37 0 3 -45z m52 0 c0 -16 -6 -25 -15 -25 -9 0 -15 9 -15 25 0 16 6 25 15 25
9 0 15 -9 15 -25z"/>
<path d="M1550 215 c0 -14 5 -25 10 -25 6 0 10 7 10 15 0 8 7 15 15 15 9 0 15
-9 15 -25 0 -20 -5 -25 -25 -25 -14 0 -25 -4 -25 -10 0 -5 14 -10 30 -10 22 0
33 6 41 24 16 35 -3 66 -41 66 -25 0 -30 -4 -30 -25z"/>
</g>
</svg>
